<?xml version="1.0" encoding="utf-8"?>
<!-- Generator: Adobe Illustrator 22.1.0, SVG Export Plug-In . SVG Version: 6.00 Build 0)  -->
<svg version="1.0" id="Layer_1" xmlns="http://www.w3.org/2000/svg" xmlns:xlink="http://www.w3.org/1999/xlink" x="0px" y="0px"
	 viewBox="0 0 200.5 177" style="enable-background:new 0 0 200.5 177;" xml:space="preserve">
<style type="text/css">
	.st0{opacity:0.8;}
	.st1{fill:none;stroke:#545471;stroke-miterlimit:10;}
	.st2{fill:#545471;}
</style>
<g class="st0">
	<g>
		<circle class="st1" cx="87.9" cy="77.4" r="15.4"/>
		<ellipse transform="matrix(0.958 -0.2868 0.2868 0.958 -20.8071 29.6917)" class="st1" cx="90.9" cy="85.9" rx="7.3" ry="3"/>
		<g>
			<g>
				<g>
					<path class="st2" d="M94.7,85.1c1.9,0,1.9-3,0-3C92.8,82.1,92.7,85.1,94.7,85.1L94.7,85.1z"/>
				</g>
			</g>
			<g>
				<g>
					<path class="st2" d="M93.7,88.6c1.9,0,1.9-3,0-3C91.7,85.6,91.7,88.6,93.7,88.6L93.7,88.6z"/>
				</g>
			</g>
			<g>
				<g>
					<path class="st2" d="M88.6,90.1c1.9,0,1.9-3,0-3C86.7,87.1,86.7,90.1,88.6,90.1L88.6,90.1z"/>
				</g>
			</g>
			<g>
				<g>
					<path class="st2" d="M86.5,87.2c1.9,0,1.9-3,0-3C84.5,84.2,84.5,87.2,86.5,87.2L86.5,87.2z"/>
				</g>
			</g>
			<g>
				<g>
					<path class="st2" d="M90.4,85.1c1.9,0,1.9-3,0-3C88.5,82.1,88.5,85.1,90.4,85.1L90.4,85.1z"/>
				</g>
			</g>
			<polyline class="st1" points="94.7,83.6 91.2,85.8 93.7,87.1 			"/>
			<polyline class="st1" points="90.4,83.6 91.2,85.8 86.5,85.7 			"/>
			<line class="st1" x1="88.6" y1="88.6" x2="91.2" y2="85.8"/>
		</g>
	</g>
	<g>
		<circle class="st1" cx="57.1" cy="68.2" r="15.4"/>
		<ellipse transform="matrix(0.757 -0.6534 0.6534 0.757 -36.3463 51.1726)" class="st1" cx="50.6" cy="74.5" rx="3" ry="7.3"/>
		<g>
			<g>
				<g>
					<path class="st2" d="M54.2,78.4c1.9,0,1.9-3,0-3C52.3,75.4,52.3,78.4,54.2,78.4L54.2,78.4z"/>
				</g>
			</g>
			<g>
				<g>
					<path class="st2" d="M50.6,78.9c1.9,0,1.9-3,0-3C48.7,75.9,48.7,78.9,50.6,78.9L50.6,78.9z"/>
				</g>
			</g>
			<g>
				<g>
					<path class="st2" d="M47.2,75c1.9,0,1.9-3,0-3C45.2,72,45.2,75,47.2,75L47.2,75z"/>
				</g>
			</g>
			<g>
				<g>
					<path class="st2" d="M48.9,71.8c1.9,0,1.9-3,0-3C47,68.8,47,71.8,48.9,71.8L48.9,71.8z"/>
				</g>
			</g>
			<g>
				<g>
					<path class="st2" d="M52.5,74.5c1.9,0,1.9-3,0-3C50.5,71.5,50.5,74.5,52.5,74.5L52.5,74.5z"/>
				</g>
			</g>
			<polyline class="st1" points="54.2,76.9 50.8,74.7 50.6,77.4 			"/>
			<polyline class="st1" points="52.5,73 50.8,74.7 48.9,70.3 			"/>
			<line class="st1" x1="47.2" y1="73.5" x2="50.8" y2="74.7"/>
		</g>
	</g>
	<circle class="st1" cx="120" cy="47.6" r="15.4"/>
	<circle class="st1" cx="110.1" cy="102.6" r="15.4"/>
	<ellipse transform="matrix(0.9651 -0.2618 0.2618 0.9651 -7.2509 35.2053)" class="st1" cx="128.5" cy="44.8" rx="3" ry="7.3"/>
	<g>
		<g>
			<g>
				<path class="st2" d="M126.3,42.5c1.9,0,1.9-3,0-3C124.4,39.5,124.4,42.5,126.3,42.5L126.3,42.5z"/>
			</g>
		</g>
		<g>
			<g>
				<path class="st2" d="M129.8,43.6c1.9,0,1.9-3,0-3C127.8,40.6,127.8,43.6,129.8,43.6L129.8,43.6z"/>
			</g>
		</g>
		<g>
			<g>
				<path class="st2" d="M131.2,48.7c1.9,0,1.9-3,0-3C129.3,45.7,129.3,48.7,131.2,48.7L131.2,48.7z"/>
			</g>
		</g>
		<g>
			<g>
				<path class="st2" d="M128.3,50.8c1.9,0,1.9-3,0-3C126.3,47.8,126.3,50.8,128.3,50.8L128.3,50.8z"/>
			</g>
		</g>
		<g>
			<g>
				<path class="st2" d="M126.2,46.8c1.9,0,1.9-3,0-3C124.3,43.8,124.3,46.8,126.2,46.8L126.2,46.8z"/>
			</g>
		</g>
		<polyline class="st1" points="126.3,41 128.4,44.5 129.8,42.1 		"/>
		<polyline class="st1" points="126.2,45.3 128.4,44.5 128.3,49.3 		"/>
		<line class="st1" x1="131.2" y1="47.2" x2="128.4" y2="44.5"/>
	</g>
	<g>
		<path class="st2" d="M57.1,22.9c3.9,3.9,7.6,8.3,10.1,13.4c0.3,0.6,0.6,1.3,0.8,1.9c0.3,0.7,0.5,1.3,0.7,2c0.4,1.3,0.7,2.7,1.1,4
			c0.4,1.3,0.8,2.6,1.7,3.5c0.9,1,2.1,1.7,3.2,2.5c2.3,1.6,4.6,3.1,7.1,4.4c2.4,1.3,5,2.4,7.7,3.1c2.7,0.6,5.5,1.2,8.1,2.2
			c2.6,1,5,2.7,7,4.7c1,1,1.9,2.3,2.1,3.7c0.3,1.4,0.3,2.8,1.1,3.8c0.8,1,2,1.7,3.2,2.3c0.6,0.3,1.2,0.6,1.9,0.8
			c0.6,0.3,1.3,0.5,1.9,0.7c2.6,0.9,5.3,1.5,8,2.1c1.4,0.3,2.7,0.6,4.1,1c1.4,0.4,2.7,0.9,4,1.7c1.2,0.8,2.3,2,2.9,3.3
			c0.6,1.3,1.1,2.6,1.5,4c0.4,1.4,0.6,2.8,0.9,4.1c0.3,1.3,0.7,2.7,1.2,4c1,2.6,2.2,5.1,3.4,7.6c1.2,2.5,2.3,5.1,3.2,7.7l-0.1,0
			c-1.1-2.6-2.4-5-3.6-7.5c-1.2-2.5-2.6-4.9-3.7-7.5c-0.5-1.3-0.9-2.7-1.3-4c-0.3-1.4-0.6-2.7-1-4c-0.4-1.3-0.9-2.6-1.5-3.8
			c-0.6-1.2-1.5-2.2-2.6-2.9c-1.1-0.7-2.4-1.2-3.7-1.5c-1.3-0.4-2.7-0.7-4-1c-2.7-0.6-5.4-1.3-8.1-2.2c-0.7-0.2-1.3-0.5-2-0.7
			c-0.7-0.2-1.3-0.5-1.9-0.9c-1.3-0.7-2.5-1.4-3.4-2.7c-0.5-0.6-0.7-1.4-0.8-2.1c-0.1-0.7-0.2-1.4-0.3-2.1c-0.2-1.3-0.9-2.5-1.9-3.5
			c-1.9-2-4.1-3.7-6.7-4.7c-2.6-1.1-5.3-1.6-8-2.2C84,56.7,78.9,54,74.3,51l-1.7-1.2c-0.3-0.2-0.6-0.4-0.9-0.7l-0.4-0.3l-0.4-0.4
			c-1-1.1-1.6-2.5-1.9-3.9c-0.6-2.7-1.3-5.4-2.5-7.9c-1.2-2.5-2.5-4.9-4.2-7.1c-0.8-1.1-1.7-2.2-2.5-3.3L57.1,22.9L57.1,22.9z"/>
	</g>
	<g>
		<path class="st2" d="M72.4,49.3c0.1-0.6,0.3-1.2,0.1-1.7c-0.2-0.5-0.8-0.2-1.3,0.1c-1,0.7-1.8,1.5-2.6,2.4
			c-0.8,0.9-1.5,1.8-2.1,2.8c-0.6,0.9-1,2.1-0.2,3l-0.1,0.1c-0.6-0.2-1-0.9-1-1.6c0-0.7,0.2-1.4,0.4-1.9c0.6-1.2,1.5-2,2.4-2.9
			c0.9-0.8,1.9-1.6,3-2.2c0.3-0.1,0.6-0.3,0.9-0.3c0.2,0,0.4,0,0.6,0.1c0.2,0.1,0.3,0.3,0.3,0.5C73,48.1,72.7,48.7,72.4,49.3
			L72.4,49.3z"/>
	</g>
	<g>
		<path class="st2" d="M87.9,57.5c-0.3,0-0.5,0-0.8-0.1c-0.3-0.1-0.4-0.4-0.4-0.7c-0.1-0.5,0.1-1,0.3-1.5c0.4-0.9,0.9-1.8,1.5-2.7
			c1.1-1.7,2.5-3.2,4.3-4.4c0.9-0.6,1.9-1,2.9-1.2c0.5-0.1,1.1-0.1,1.6,0c0.6,0.1,1,0.2,1.5,0.3c1.9,0.5,3.9,1.1,5.7,1.9l0,0.1
			c-2-0.2-4-0.6-5.9-1c-1-0.3-1.8-0.4-2.8-0.3c-0.9,0.1-1.8,0.4-2.7,0.9c-1.7,0.9-3.1,2.4-4.3,4c-0.6,0.8-1.2,1.6-1.6,2.5
			c-0.2,0.4-0.4,0.9-0.4,1.4c0,0.2,0.1,0.5,0.3,0.6C87.4,57.4,87.7,57.4,87.9,57.5L87.9,57.5z"/>
	</g>
	<path class="st1" d="M81.4,54.7C80.5,61,81,59.2,83.6,63"/>
	<path class="st1" d="M112.7,95c4.4-6.5,7.5-7.6,11.7-7.9c4.3-0.3,5.9-0.4,11,1.6"/>
	<ellipse transform="matrix(0.7071 -0.7071 0.7071 0.7071 -34.3191 107.1418)" class="st1" cx="112.2" cy="95" rx="1.9" ry="3.2"/>
	<g>
		<path class="st1" d="M64.2,95c-20.8,3.5-19.1,12.6-34.7,16.9C13.9,116.3,8,118.9,8,118.9s-10.1,1.3,12.4,1.7s26.8,0.9,37.2-6.1
			c10.4-6.9,14.3-6.9,14.8-13C72.9,95.4,64.2,95,64.2,95z"/>
		<path class="st1" d="M8,118.9c0,0,20.4-1.3,27.4-3s13.8-2.8,21.7-7.9c7.8-5.1,12.1-11.6,12.1-11.6"/>
		<line class="st1" x1="60.1" y1="105.7" x2="50.8" y2="102.6"/>
		<line class="st1" x1="50.8" y1="111.5" x2="47.2" y2="118"/>
		<line class="st1" x1="41.7" y1="114.3" x2="31.1" y2="114.3"/>
	</g>
	<g>
		<path class="st1" d="M138.5,141.2c20.5-5.2,18-14.2,33.2-19.8c15.2-5.6,20.8-8.7,20.8-8.7s9.9-2.1-12.5-0.7
			c-22.4,1.5-26.8,1.4-36.6,9.2c-9.8,7.8-13.7,8.1-13.6,14.2C129.9,141.5,138.5,141.2,138.5,141.2z"/>
		<path class="st1" d="M192.5,112.7c0,0-20.2,3-27,5.3c-6.8,2.3-13.6,4-20.9,9.7c-7.4,5.7-11,12.6-11,12.6"/>
		<line class="st1" x1="141.7" y1="130.2" x2="151.2" y2="132.5"/>
		<line class="st1" x1="150.5" y1="123.6" x2="153.6" y2="116.8"/>
		<line class="st1" x1="159.4" y1="120.1" x2="170" y2="119.2"/>
	</g>
	<g>
		<path class="st1" d="M108.5,156.1c-20.5-5.2-18-14.2-33.2-19.8s-20.8-8.7-20.8-8.7s-9.9-2.1,12.5-0.7c22.4,1.5,26.8,1.4,36.6,9.2
			s13.7,8.1,13.6,14.2C117.2,156.4,108.5,156.1,108.5,156.1z"/>
		<path class="st1" d="M54.5,127.5c0,0,20.2,3,27,5.3s13.6,4,20.9,9.7c7.4,5.7,11,12.6,11,12.6"/>
		<line class="st1" x1="105.3" y1="145" x2="95.8" y2="147.4"/>
		<line class="st1" x1="96.5" y1="138.5" x2="93.4" y2="131.7"/>
		<line class="st1" x1="87.6" y1="134.9" x2="77.1" y2="134"/>
	</g>
</g>
</svg>
