<?xml version="1.0" encoding="utf-8"?>
<!-- Generator: Adobe Illustrator 22.1.0, SVG Export Plug-In . SVG Version: 6.00 Build 0)  -->
<svg version="1.0" id="Layer_1" xmlns="http://www.w3.org/2000/svg" xmlns:xlink="http://www.w3.org/1999/xlink" x="0px" y="0px"
	 viewBox="0 0 200.5 177" style="enable-background:new 0 0 200.5 177;" xml:space="preserve">
<style type="text/css">
	.st0{opacity:0.8;}
	.st1{fill:none;stroke:#545471;stroke-miterlimit:10;}
	.st2{opacity:0.8;fill:none;stroke:#545471;stroke-miterlimit:10;}
</style>
<g class="st0">
	<g class="st0">
		<path class="st1" d="M71.7,95.1c5.2,4.5,6.7,3.7,15,3.7s11.2,1.5,15.7-3.7c4.5-5.2,6.7-3,9-14.2c2.2-11.2,4.5-17.2,0-26.9
			c-4.5-9.7-7.5-20.2-12-26.9c-4.5-6.7-9.7-17.2-9.7-17.2s-3,6-6.7,11.2s-6,6.7-11.2,16.5s-7.7,15.7-8.2,21.7
			c-0.6,6.7-1.7,18.7-0.1,22.4C65,85.3,71.7,95.1,71.7,95.1z"/>
		<path class="st1" d="M78.9,26.2c-1.2,16.5-5,19.5-5.7,31.5c-0.7,12,0,20.9,0,26.2S75.9,99,75.9,99"/>
		<path class="st1" d="M89.7,9.8c-3,21.7-3.7,22.4-4.5,35.2c-0.7,12.7-1.5,18.7,0,29.2s1.5,24.7,1.5,24.7"/>
		<path class="st1" d="M101.6,30.7c0,0,1.4,0.8,0,13.7c-1.4,12.9-2.9,22.6-3.7,30.6c-0.7,8.1,2.2,17.6,0,23.4"/>
		<path class="st1" d="M108.2,46.4c-0.5,14.3,1.3,10.5,0,21s1.9,10.1-0.1,17.2c-2,7.1-2,7.1-2,7.1"/>
	</g>
	<g class="st0">
		<path class="st1" d="M113.2,82.4c-0.1,6.9,1.5,7.6,6.7,13.9c5.3,6.3,6.1,9.6,12.9,9.6c6.9,0.1,6.6,3.2,16.7-2.2
			c10-5.5,16.1-7.6,20.7-17.3c4.6-9.7,10.7-18.7,13-26.5c2.3-7.8,7-18.5,7-18.5s-6.5,1.5-12.9,2c-6.4,0.5-9-0.3-19.8,2
			s-16.9,4.2-21.9,7.6c-5.6,3.8-15.4,10.7-17.3,14.3C116.3,71,113.2,82.4,113.2,82.4z"/>
		<path class="st1" d="M170.6,43.8c-13.4,9.6-18.1,8.7-27.8,15.8S126.8,73,122.8,76.4c-4,3.4-9.9,11.8-9.9,11.8"/>
		<path class="st1" d="M190.1,41.5c-18.6,11.6-19.6,11.5-29.8,19.1S145,71.5,137.9,79.3s-18,17-18,17"/>
		<path class="st1" d="M181.7,64.1c0,0,0.3,1.6-10.5,8.8C160.4,80,152,85.1,145.3,89.7c-6.7,4.6-12.1,13-17.9,15"/>
		<path class="st1" d="M173.9,79.2c-11.3,8.7-7.3,7.7-16.1,13.5s-6.6,8-13.3,11c-6.7,3-6.7,3-6.7,3"/>
	</g>
	<path class="st2" d="M20.9,101.1c0,0-5.4,6.1-6.9,12.7s-3.7,14.9,0,19.4c3.7,4.5,1.1,6,6.5,7.5c5.4,1.5,4.7,3.7,12.9,4.5
		s11.2-0.7,18-3.7s12-15.8,12-15.8"/>
	
		<ellipse transform="matrix(0.4673 -0.8841 0.8841 0.4673 -76.1648 97.3739)" class="st2" cx="42.7" cy="111.9" rx="9.7" ry="24.7"/>
	<path class="st2" d="M27.7,113.3c0,0-4.7,1.4-6.2,9.9c-1.5,8.5-0.9,17.5-0.9,17.5"/>
	<path class="st2" d="M38.2,120.5c0,0,0.5,2.3-4.8,9.8c-5.2,7.5-9.4,11.9-9.4,11.9"/>
	<path class="st2" d="M47.4,123.2c-5.8,12.9-14,21.9-14,21.9"/>
	<path class="st2" d="M69.9,139.1c0,0,3.2,8.7,9.1,13.8s13,11.8,19.5,10.5c6.5-1.3,6.6,2.1,11.1-2.5c4.4-4.7,6.3-2.7,11.5-10.6
		c5.2-7.9,5.3-11.7,6-20.1c0.6-8.4-9.4-20.7-9.4-20.7"/>
	<ellipse transform="matrix(0.8304 -0.5571 0.5571 0.8304 -52.8072 72.4802)" class="st2" cx="92.7" cy="123" rx="28.2" ry="11.1"/>
	<path class="st2" d="M85.9,138.9c0,0-1.1,5.5,6.6,11.6s17.1,10.4,17.1,10.4"/>
	<path class="st2" d="M98.8,132.2c0,0,2.6,0.8,7.3,10.1c4.7,9.3,6.9,15.9,6.9,15.9"/>
	<path class="st2" d="M106.6,124.4c9.9,12.8,14.5,26,14.5,26"/>
</g>
</svg>
