<?xml version="1.0" encoding="utf-8"?>
<!-- Generator: Adobe Illustrator 22.1.0, SVG Export Plug-In . SVG Version: 6.00 Build 0)  -->
<svg version="1.0" id="Layer_1" xmlns="http://www.w3.org/2000/svg" xmlns:xlink="http://www.w3.org/1999/xlink" x="0px" y="0px"
	 viewBox="0 0 200.5 177" style="enable-background:new 0 0 200.5 177;" xml:space="preserve">
<style type="text/css">
	.st0{opacity:0.8;}
	.st1{fill:none;stroke:#545471;stroke-miterlimit:10;}
	.st2{fill:#545272;}
	.st3{fill:none;stroke:#545272;stroke-miterlimit:10;}
</style>
<g class="st0">
	<path class="st1" d="M117.2,67.6c0,13.4-17.3,61.8-38.7,61.8S39.7,81,39.7,67.6S57,43.3,78.4,43.3S117.2,54.2,117.2,67.6z"/>
	<path class="st1" d="M77.6,36.7c0,4.1-8.5,7.4-18.9,7.4s-18.9-3.3-18.9-7.4H77.6z"/>
	<path class="st1" d="M116,36.7c0,4.1-8.5,7.4-18.9,7.4s-18.9-3.3-18.9-7.4H116z"/>
	<path class="st1" d="M114.4,16.2c1.6,3.8-4.9,10.1-14.5,14.2S81.1,34.7,79.5,31L114.4,16.2z"/>
	<path class="st1" d="M41.4,16.2c-1.6,3.8,4.9,10.1,14.5,14.2s18.7,4.3,20.3,0.6L41.4,16.2z"/>
	<path class="st1" d="M78.1,36.7c-1.9-5.7,0-16.8,0-16.8"/>
	<ellipse class="st2" cx="54.5" cy="65.4" rx="1.6" ry="4"/>
	<ellipse class="st2" cx="70.6" cy="65.4" rx="1.6" ry="4"/>
	
		<ellipse transform="matrix(0.999 -4.413172e-02 4.413172e-02 0.999 -5.644 5.2474)" class="st2" cx="116" cy="130.5" rx="4" ry="1.6"/>
	<ellipse transform="matrix(0.9249 -0.3803 0.3803 0.9249 -35.6572 55.7606)" class="st2" cx="123.3" cy="118.1" rx="1.6" ry="4"/>
	
		<ellipse transform="matrix(7.943133e-02 -0.9968 0.9968 7.943133e-02 12.6275 241.4833)" class="st2" cx="137.1" cy="113.9" rx="4" ry="1.6"/>
	<ellipse class="st2" cx="94.4" cy="78.3" rx="1.6" ry="4"/>
	<ellipse class="st2" cx="79.5" cy="85.2" rx="1.6" ry="4"/>
	<ellipse class="st2" cx="65.2" cy="95.4" rx="1.6" ry="4"/>
	<ellipse class="st2" cx="94.4" cy="101" rx="1.6" ry="4"/>
	<ellipse class="st2" cx="75.7" cy="115.2" rx="1.6" ry="4"/>
	<ellipse class="st2" cx="63.6" cy="78.3" rx="1.6" ry="4"/>
	<ellipse class="st2" cx="101.6" cy="65.4" rx="1.6" ry="4"/>
	<ellipse class="st3" cx="137.1" cy="133.4" rx="29.7" ry="28.2"/>
	<ellipse transform="matrix(0.4759 -0.8795 0.8795 0.4759 -24.2758 194.2517)" class="st2" cx="150.9" cy="117.5" rx="4" ry="1.6"/>
	<ellipse transform="matrix(0.1495 -0.9888 0.9888 0.1495 1.221 267.8568)" class="st2" cx="156.3" cy="133.2" rx="1.6" ry="4"/>
	<ellipse transform="matrix(0.5808 -0.8141 0.8141 0.5808 -55.7413 186.1439)" class="st2" cx="152.9" cy="147.2" rx="1.6" ry="4"/>
	<ellipse transform="matrix(0.8604 -0.5097 0.5097 0.8604 -57.4482 94.0448)" class="st2" cx="142.9" cy="151.9" rx="1.6" ry="4"/>
	<ellipse transform="matrix(0.6366 -0.7712 0.7712 0.6366 -69.9104 154.1577)" class="st2" cx="128.6" cy="151.3" rx="4" ry="1.6"/>
	<ellipse transform="matrix(0.9167 -0.3997 0.3997 0.9167 -46.5299 59.0826)" class="st2" cx="118.4" cy="141.1" rx="4" ry="1.6"/>
	<g>
		<path class="st3" d="M136.8,145.3c1-2.1,1.5-4.3,1.5-6.8c0-2.4-0.6-4.7-1.5-6.7c-1,2.1-1.5,4.3-1.5,6.8
			C135.2,141,135.8,143.3,136.8,145.3z"/>
		<path class="st3" d="M136.5,132.8c1-2.1,1.5-4.3,1.5-6.8c0-2.4-0.6-4.7-1.5-6.7c-1,2.1-1.5,4.3-1.5,6.8
			C135,128.4,135.6,130.7,136.5,132.8z"/>
		<path class="st3" d="M137.4,131.5c2,1.1,4.3,1.7,6.7,1.8c2.4,0.1,4.7-0.4,6.8-1.3c-2-1.1-4.3-1.7-6.7-1.8
			C141.7,130.2,139.4,130.6,137.4,131.5z"/>
		<path class="st3" d="M136.5,131.1c2.2-0.6,4.3-1.6,6.2-3.2c1.8-1.5,3.2-3.4,4.2-5.5c-2.2,0.6-4.3,1.6-6.2,3.2
			C138.9,127.2,137.5,129.1,136.5,131.1z"/>
		<path class="st3" d="M137.2,131.5c2.2,0.6,4.3,1.6,6.2,3.2c1.8,1.5,3.2,3.4,4.2,5.5c-2.2-0.6-4.3-1.6-6.2-3.2
			C139.5,135.5,138.1,133.6,137.2,131.5z"/>
		<path class="st3" d="M136.5,131.9c-2.2-0.6-4.3-1.6-6.2-3.2c-1.8-1.5-3.2-3.4-4.2-5.5c2.2,0.6,4.3,1.6,6.2,3.2
			C134.2,127.9,135.6,129.8,136.5,131.9z"/>
		<path class="st3" d="M136.3,131.7c-2.2,0.6-4.3,1.6-6.2,3.2c-1.8,1.5-3.2,3.4-4.2,5.5c2.2-0.6,4.3-1.6,6.2-3.2
			C134,135.6,135.4,133.8,136.3,131.7z"/>
		<path class="st3" d="M122.9,134.2c2.2,0.5,4.6,0.6,6.9,0c2.4-0.5,4.5-1.6,6.2-3c-2.2-0.5-4.6-0.6-6.9,0
			C126.8,131.8,124.7,132.8,122.9,134.2z"/>
	</g>
</g>
</svg>
