<?xml version="1.0" encoding="utf-8"?>
<!-- Generator: Adobe Illustrator 22.1.0, SVG Export Plug-In . SVG Version: 6.00 Build 0)  -->
<svg version="1.0" id="Layer_1" xmlns="http://www.w3.org/2000/svg" xmlns:xlink="http://www.w3.org/1999/xlink" x="0px" y="0px"
	 viewBox="0 0 200.5 177" style="enable-background:new 0 0 200.5 177;" xml:space="preserve">
<style type="text/css">
	.st0{fill:#604122;}
	.st1{fill:#5E2346;}
	.st2{fill:#477D9F;}
	.st3{fill:none;}
	.st4{font-family:'Zapfino';}
	.st5{font-size:26px;}
	.st6{font-family:'Georgia';}
	.st7{font-size:12px;}
	.st8{fill:#231F20;}
	.st9{font-family:'HelveticaNeue';}
	.st10{letter-spacing:2;}
</style>
<g>
	<path class="st0" d="M72.4,113.7c1.8-0.8,3.5-1.2,4.8-2.1c3.1-2.1,6.3-4.3,9.1-6.8c9.5-9,17.2-19.5,24.5-30.3
		c1.6-2.3,3.4-3.2,5.9-3.7c1.5-0.3,2.3,0.4,2.3,1.8c0,1.5-0.2,3-0.6,4.3c-2.1,6.7-6.1,12.2-11.1,17c-8.6,8.3-18.2,15.4-28.4,21.6
		c-0.4,0.2-0.8,0.4-1.1,0.8c-0.2,0.4-0.4,1-0.2,1.3c0.2,0.3,0.9,0.3,1.3,0.3c0.4-0.1,0.8-0.4,1.2-0.6c11.5-6.4,21.9-14.3,30.7-24.1
		c4.8-5.3,8.8-11.1,11.3-17.8c0.5-1.2,0.7-2.6,0.7-3.9c0.1-2.3-1.2-3.6-3.5-3.7c-1.6,0-3.3,0.2-5.2,0.3c0.4-0.6,0.7-1.2,1-1.7
		c4.8-7.8,9.6-15.6,12.7-24.2c0.8-2.4,1.2-5,1.4-7.5c0.1-1.9-1-3.3-3-3.7c-1.2-0.2-2.6-0.3-3.8-0.1c-6.5,1.2-12.2,4.2-17.5,7.7
		c-14.6,9.7-26.5,22.1-35.8,36.9c-5.8,9.2-10.1,19.1-11.1,30.1c0,0.4-0.2,0.9-0.5,1.2c-1.2,1.1-2.4,2.2-3.6,3.2
		c-0.6-3.2-1.7-4.9-3.7-4.6c-2.1,0.4-4,1.5-6.1,2.3c-1.6-4.3-5.1-6.5-9.2-5.1c1,0.1,1.7,0.2,2.5,0.4c3,0.5,4.8,2.5,4.9,5.5
		c0.1,1.3-0.1,2.7-0.1,4.1c0.1,1.7,0.1,3.5,0.6,5.1c0.8,2.7,2,3.2,4.5,1.9c2.1-1,4-2.3,5.9-3.6c1.2-0.8,1.9-0.6,2.9,0.6
		c1.1,1.4,2.5,2.6,3.9,3.6c0.6,0.4,1.6,0.2,2.4,0.3c0-0.9,0.1-1.8-0.1-2.7c-0.7-2.8-1.9-5.5-2.2-8.3c-0.7-6.2,0.8-12.2,3.2-17.8
		c4.8-11.6,12.1-21.6,20.4-31c8-9.1,17-17,27.9-22.7c3.9-2,8-3.6,12.4-4.2c1.6-0.2,2.2,0.4,2,1.9c-0.3,2-0.3,4-0.9,5.9
		c-3.2,9.8-8.5,18.5-14.1,27.2c-0.3,0.5-1.1,0.9-1.7,1.1C99,73.9,90.4,80.2,83,88.3c-4.2,4.6-8.1,9.4-10.2,15.3
		C71.7,106.8,71.3,110,72.4,113.7z M79.7,121c1.2,1.3,2.1,2.4,3.2,3.3c4.3,3.3,9.2,4.3,14.6,3.8c5.3-0.5,10.6-1,15.9-1.4
		c1.2-0.1,1.4-0.7,1.3-1.7c-0.3-3.9-1.2-7.6-3.6-10.8c-1.5-2-3.7-3.1-6.4-3.1c-1.1,4.3-2.6,8.3-7.6,9.3c2.6-2.8,4.5-5.8,5-9.7
		c-2.8-0.8-2.7-0.7-3.8,1.6c-0.8,1.7-1.8,3.4-3.1,4.9c-1.4,1.7-3.2,3-5.3,3.2c2.2-3,4.4-6,6.6-9.1c0.4-0.6,0.3-1.5,0.4-2.2
		c-0.2-0.1-0.4-0.2-0.7-0.3c-1.2,1-2.6,1.9-3.6,3.1C89.1,115.8,85.4,119.2,79.7,121z"/>
	<path class="st1" d="M72.4,113.7c-1.1-3.7-0.7-6.9,0.4-10c2.1-6,6-10.7,10.2-15.3c7.4-8.1,16-14.5,26.3-18.5
		c0.6-0.3,1.4-0.6,1.7-1.1c5.5-8.6,10.9-17.4,14.1-27.2c0.6-1.9,0.7-3.9,0.9-5.9c0.2-1.5-0.4-2.1-2-1.9c-4.4,0.6-8.5,2.1-12.4,4.2
		c-10.8,5.7-19.8,13.6-27.9,22.7c-8.2,9.4-15.6,19.4-20.4,31c-2.4,5.7-4,11.6-3.2,17.8c0.3,2.8,1.5,5.5,2.2,8.3
		c0.2,0.9,0.1,1.8,0.1,2.7c-0.8-0.1-1.9,0.2-2.4-0.3c-1.4-1-2.8-2.3-3.9-3.6c-0.9-1.2-1.6-1.4-2.9-0.6c-1.9,1.3-3.9,2.6-5.9,3.6
		c-2.5,1.3-3.7,0.8-4.5-1.9c-0.5-1.6-0.5-3.4-0.6-5.1c-0.1-1.3,0.1-2.7,0.1-4.1c-0.1-3.1-1.9-5-4.9-5.5c-0.7-0.1-1.5-0.2-2.5-0.4
		c4.1-1.4,7.6,0.8,9.2,5.1c2-0.8,4-1.9,6.1-2.3c2-0.3,3.1,1.4,3.7,4.6c1.1-1,2.4-2,3.6-3.2c0.3-0.3,0.5-0.8,0.5-1.2
		c1-11,5.2-20.9,11.1-30.1c9.4-14.8,21.3-27.2,35.8-36.9c5.4-3.6,11.1-6.6,17.5-7.7c1.2-0.2,2.6-0.1,3.8,0.1c2,0.3,3.2,1.8,3,3.7
		c-0.2,2.5-0.5,5.1-1.4,7.5c-3.1,8.7-7.9,16.4-12.7,24.2c-0.3,0.5-0.6,1.1-1,1.7c1.9-0.1,3.5-0.3,5.2-0.3c2.3,0.1,3.6,1.3,3.5,3.7
		c0,1.3-0.3,2.7-0.7,3.9c-2.5,6.7-6.6,12.5-11.3,17.8c-8.9,9.8-19.2,17.7-30.7,24.1c-0.4,0.2-0.8,0.5-1.2,0.6
		c-0.4,0.1-1.1,0-1.3-0.3c-0.2-0.3,0-1,0.2-1.3c0.2-0.4,0.7-0.6,1.1-0.8c10.2-6.2,19.8-13.3,28.4-21.6c4.9-4.8,9-10.3,11.1-17
		c0.4-1.4,0.6-2.9,0.6-4.3c0-1.4-0.8-2.1-2.3-1.8c-2.5,0.4-4.3,1.4-5.9,3.7c-7.3,10.8-15,21.3-24.5,30.3c-2.7,2.6-5.9,4.7-9.1,6.8
		C75.9,112.5,74.2,112.9,72.4,113.7z M108.6,73.8c-0.1-0.1-0.2-0.3-0.3-0.4c-0.7,0.3-1.4,0.5-2.1,0.8c-7.1,3.2-13.1,7.9-18.8,13
		c-4.3,3.9-8.2,8.2-10.8,13.5c-1.6,3.2-2.9,6.5-2.9,10.8C88.8,101.7,98.6,87.7,108.6,73.8z"/>
	<path class="st1" d="M79.7,121c5.7-1.7,9.4-5.2,12.8-9.2c1-1.2,2.4-2,3.6-3.1c0.2,0.1,0.4,0.2,0.7,0.3c-0.1,0.7,0,1.6-0.4,2.2
		c-2.1,3.1-4.4,6.1-6.6,9.1c2.1-0.2,3.9-1.5,5.3-3.2c1.2-1.4,2.2-3.1,3.1-4.9c1.1-2.3,1-2.4,3.8-1.6c-0.5,3.8-2.3,6.9-5,9.7
		c5-1,6.5-5,7.6-9.3c2.7-0.1,4.9,1,6.4,3.1c2.4,3.2,3.3,6.9,3.6,10.8c0.1,0.9-0.1,1.6-1.3,1.7c-5.3,0.4-10.6,0.9-15.9,1.4
		c-5.3,0.5-10.3-0.4-14.6-3.8C81.9,123.4,81,122.3,79.7,121z"/>
	<path class="st2" d="M108.6,73.8c-10,13.8-19.7,27.9-34.9,37.7c-0.1-4.3,1.2-7.6,2.9-10.8c2.7-5.2,6.5-9.6,10.8-13.5
		c5.7-5.2,11.8-9.8,18.8-13c0.7-0.3,1.4-0.5,2.1-0.8C108.4,73.6,108.5,73.7,108.6,73.8z"/>
	<rect x="120.1" y="50.9" class="st3" width="43.6" height="45"/>
	<text transform="matrix(1 0 0 1 120.0668 94.8759)" class="st2 st4 st5">ee</text>
	<rect x="67" y="127" class="st3" width="95.5" height="12.2"/>
	<text transform="matrix(1 0 0 0.97 66.9738 139.0368)"><tspan x="0" y="0" class="st2 st6 st7">Brown</tspan><tspan x="35.2" y="0" class="st8 st6 st7"> </tspan><tspan x="38.1" y="0" class="st1 st9 st7 st10">Sugar</tspan></text>
</g>
</svg>
