<?xml version="1.0" encoding="utf-8"?>
<!-- Generator: Adobe Illustrator 22.1.0, SVG Export Plug-In . SVG Version: 6.00 Build 0)  -->
<svg version="1.1" id="Layer_1" xmlns="http://www.w3.org/2000/svg" xmlns:xlink="http://www.w3.org/1999/xlink" x="0px" y="0px"
	 width="200.5px" height="177px" viewBox="0 0 200.5 177" style="enable-background:new 0 0 200.5 177;" xml:space="preserve">
<style type="text/css">
	.st0{opacity:0.8;}
	.st1{fill:none;stroke:#7B4D6D;stroke-miterlimit:10;}
	.st2{fill:#7B4D6D;}
</style>
<g class="st0">
	<g>
		<circle class="st1" cx="87.9" cy="76.4" r="15.4"/>
		<ellipse transform="matrix(0.958 -0.2868 0.2868 0.958 -20.534 29.6402)" class="st1" cx="90.9" cy="84.9" rx="7.3" ry="3"/>
		<g>
			<g>
				<g>
					<path class="st2" d="M94.7,84.1c1.9,0,1.9-3,0-3C92.8,81.1,92.7,84.1,94.7,84.1L94.7,84.1z"/>
				</g>
			</g>
			<g>
				<g>
					<path class="st2" d="M93.7,87.6c1.9,0,1.9-3,0-3C91.7,84.6,91.7,87.6,93.7,87.6L93.7,87.6z"/>
				</g>
			</g>
			<g>
				<g>
					<path class="st2" d="M88.6,89.1c1.9,0,1.9-3,0-3S86.7,89.1,88.6,89.1L88.6,89.1z"/>
				</g>
			</g>
			<g>
				<g>
					<path class="st2" d="M86.5,86.2c1.9,0,1.9-3,0-3C84.5,83.2,84.5,86.2,86.5,86.2L86.5,86.2z"/>
				</g>
			</g>
			<g>
				<g>
					<path class="st2" d="M90.4,84.1c1.9,0,1.9-3,0-3S88.5,84.1,90.4,84.1L90.4,84.1z"/>
				</g>
			</g>
			<polyline class="st1" points="94.7,82.6 91.2,84.8 93.7,86.1 			"/>
			<polyline class="st1" points="90.4,82.6 91.2,84.8 86.5,84.7 			"/>
			<line class="st1" x1="88.6" y1="87.6" x2="91.2" y2="84.8"/>
		</g>
	</g>
	<g>
		<circle class="st1" cx="57.1" cy="67.2" r="15.4"/>
		<ellipse transform="matrix(0.757 -0.6534 0.6534 0.757 -35.7258 50.9477)" class="st1" cx="50.6" cy="73.5" rx="3" ry="7.3"/>
		<g>
			<g>
				<g>
					<path class="st2" d="M54.2,77.4c1.9,0,1.9-3,0-3S52.3,77.4,54.2,77.4L54.2,77.4z"/>
				</g>
			</g>
			<g>
				<g>
					<path class="st2" d="M50.6,77.9c1.9,0,1.9-3,0-3C48.7,74.9,48.7,77.9,50.6,77.9L50.6,77.9z"/>
				</g>
			</g>
			<g>
				<g>
					<path class="st2" d="M47.2,74c1.9,0,1.9-3,0-3C45.2,71,45.2,74,47.2,74L47.2,74z"/>
				</g>
			</g>
			<g>
				<g>
					<path class="st2" d="M48.9,70.8c1.9,0,1.9-3,0-3S47,70.8,48.9,70.8L48.9,70.8z"/>
				</g>
			</g>
			<g>
				<g>
					<path class="st2" d="M52.5,73.5c1.9,0,1.9-3,0-3C50.5,70.5,50.5,73.5,52.5,73.5L52.5,73.5z"/>
				</g>
			</g>
			<polyline class="st1" points="54.2,75.9 50.8,73.7 50.6,76.4 			"/>
			<polyline class="st1" points="52.5,72 50.8,73.7 48.9,69.3 			"/>
			<line class="st1" x1="47.2" y1="72.5" x2="50.8" y2="73.7"/>
		</g>
	</g>
	<circle class="st1" cx="120" cy="46.6" r="15.4"/>
	<circle class="st1" cx="110.1" cy="101.6" r="15.4"/>
	<ellipse transform="matrix(0.9651 -0.2618 0.2618 0.9651 -6.9855 35.1679)" class="st1" cx="128.5" cy="43.8" rx="3" ry="7.3"/>
	<g>
		<g>
			<g>
				<path class="st2" d="M126.3,41.5c1.9,0,1.9-3,0-3C124.4,38.5,124.4,41.5,126.3,41.5L126.3,41.5z"/>
			</g>
		</g>
		<g>
			<g>
				<path class="st2" d="M129.8,42.6c1.9,0,1.9-3,0-3C127.8,39.6,127.8,42.6,129.8,42.6L129.8,42.6z"/>
			</g>
		</g>
		<g>
			<g>
				<path class="st2" d="M131.2,47.7c1.9,0,1.9-3,0-3S129.3,47.7,131.2,47.7L131.2,47.7z"/>
			</g>
		</g>
		<g>
			<g>
				<path class="st2" d="M128.3,49.8c1.9,0,1.9-3,0-3C126.3,46.8,126.3,49.8,128.3,49.8L128.3,49.8z"/>
			</g>
		</g>
		<g>
			<g>
				<path class="st2" d="M126.2,45.8c1.9,0,1.9-3,0-3S124.3,45.8,126.2,45.8L126.2,45.8z"/>
			</g>
		</g>
		<polyline class="st1" points="126.3,40 128.4,43.5 129.8,41.1 		"/>
		<polyline class="st1" points="126.2,44.3 128.4,43.5 128.3,48.3 		"/>
		<line class="st1" x1="131.2" y1="46.2" x2="128.4" y2="43.5"/>
	</g>
	<g>
		<path class="st2" d="M57.1,21.9c3.9,3.9,7.6,8.3,10.1,13.4c0.3,0.6,0.6,1.3,0.8,1.9c0.3,0.7,0.5,1.3,0.7,2c0.4,1.3,0.7,2.7,1.1,4
			s0.8,2.6,1.7,3.5c0.9,1,2.1,1.7,3.2,2.5c2.3,1.6,4.6,3.1,7.1,4.4c2.4,1.3,5,2.4,7.7,3.1c2.7,0.6,5.5,1.2,8.1,2.2s5,2.7,7,4.7
			c1,1,1.9,2.3,2.1,3.7c0.3,1.4,0.3,2.8,1.1,3.8c0.8,1,2,1.7,3.2,2.3c0.6,0.3,1.2,0.6,1.9,0.8c0.6,0.3,1.3,0.5,1.9,0.7
			c2.6,0.9,5.3,1.5,8,2.1c1.4,0.3,2.7,0.6,4.1,1c1.4,0.4,2.7,0.9,4,1.7c1.2,0.8,2.3,2,2.9,3.3c0.6,1.3,1.1,2.6,1.5,4
			s0.6,2.8,0.9,4.1c0.3,1.3,0.7,2.7,1.2,4c1,2.6,2.2,5.1,3.4,7.6s2.3,5.1,3.2,7.7h-0.1c-1.1-2.6-2.4-5-3.6-7.5
			c-1.2-2.5-2.6-4.9-3.7-7.5c-0.5-1.3-0.9-2.7-1.3-4c-0.3-1.4-0.6-2.7-1-4s-0.9-2.6-1.5-3.8c-0.6-1.2-1.5-2.2-2.6-2.9
			c-1.1-0.7-2.4-1.2-3.7-1.5c-1.3-0.4-2.7-0.7-4-1c-2.7-0.6-5.4-1.3-8.1-2.2c-0.7-0.2-1.3-0.5-2-0.7s-1.3-0.5-1.9-0.9
			c-1.3-0.7-2.5-1.4-3.4-2.7c-0.5-0.6-0.7-1.4-0.8-2.1c-0.1-0.7-0.2-1.4-0.3-2.1c-0.2-1.3-0.9-2.5-1.9-3.5c-1.9-2-4.1-3.7-6.7-4.7
			c-2.6-1.1-5.3-1.6-8-2.2C84,55.7,78.9,53,74.3,50l-1.7-1.2c-0.3-0.2-0.6-0.4-0.9-0.7l-0.4-0.3l-0.4-0.4c-1-1.1-1.6-2.5-1.9-3.9
			c-0.6-2.7-1.3-5.4-2.5-7.9s-2.5-4.9-4.2-7.1c-0.8-1.1-1.7-2.2-2.5-3.3L57.1,21.9L57.1,21.9z"/>
	</g>
	<g>
		<path class="st2" d="M72.4,48.3c0.1-0.6,0.3-1.2,0.1-1.7c-0.2-0.5-0.8-0.2-1.3,0.1c-1,0.7-1.8,1.5-2.6,2.4
			c-0.8,0.9-1.5,1.8-2.1,2.8c-0.6,0.9-1,2.1-0.2,3L66.2,55c-0.6-0.2-1-0.9-1-1.6c0-0.7,0.2-1.4,0.4-1.9c0.6-1.2,1.5-2,2.4-2.9
			c0.9-0.8,1.9-1.6,3-2.2c0.3-0.1,0.6-0.3,0.9-0.3c0.2,0,0.4,0,0.6,0.1s0.3,0.3,0.3,0.5C73,47.1,72.7,47.7,72.4,48.3L72.4,48.3z"/>
	</g>
	<g>
		<path class="st2" d="M87.9,56.5c-0.3,0-0.5,0-0.8-0.1s-0.4-0.4-0.4-0.7c-0.1-0.5,0.1-1,0.3-1.5c0.4-0.9,0.9-1.8,1.5-2.7
			c1.1-1.7,2.5-3.2,4.3-4.4c0.9-0.6,1.9-1,2.9-1.2c0.5-0.1,1.1-0.1,1.6,0c0.6,0.1,1,0.2,1.5,0.3c1.9,0.5,3.9,1.1,5.7,1.9v0.1
			c-2-0.2-4-0.6-5.9-1c-1-0.3-1.8-0.4-2.8-0.3c-0.9,0.1-1.8,0.4-2.7,0.9c-1.7,0.9-3.1,2.4-4.3,4c-0.6,0.8-1.2,1.6-1.6,2.5
			c-0.2,0.4-0.4,0.9-0.4,1.4c0,0.2,0.1,0.5,0.3,0.6C87.4,56.4,87.7,56.4,87.9,56.5L87.9,56.5z"/>
	</g>
	<path class="st1" d="M81.4,53.7C80.5,60,81,58.2,83.6,62"/>
	<path class="st1" d="M112.7,94c4.4-6.5,7.5-7.6,11.7-7.9c4.3-0.3,5.9-0.4,11,1.6"/>
	<ellipse transform="matrix(0.7071 -0.7071 0.7071 0.7071 -33.5934 106.8577)" class="st1" cx="112.2" cy="94" rx="1.9" ry="3.2"/>
	<g>
		<path class="st1" d="M64.2,94c-20.8,3.5-19.1,12.6-34.7,16.9c-15.6,4.4-21.5,7-21.5,7s-10.1,1.3,12.4,1.7s26.8,0.9,37.2-6.1
			c10.4-6.9,14.3-6.9,14.8-13S64.2,94,64.2,94z"/>
		<path class="st1" d="M8,117.9c0,0,20.4-1.3,27.4-3s13.8-2.8,21.7-7.9c7.8-5.1,12.1-11.6,12.1-11.6"/>
		<line class="st1" x1="60.1" y1="104.7" x2="50.8" y2="101.6"/>
		<line class="st1" x1="50.8" y1="110.5" x2="47.2" y2="117"/>
		<line class="st1" x1="41.7" y1="113.3" x2="31.1" y2="113.3"/>
	</g>
	<g>
		<path class="st1" d="M138.5,140.2c20.5-5.2,18-14.2,33.2-19.8c15.2-5.6,20.8-8.7,20.8-8.7s9.9-2.1-12.5-0.7
			c-22.4,1.5-26.8,1.4-36.6,9.2s-13.7,8.1-13.6,14.2C129.9,140.5,138.5,140.2,138.5,140.2z"/>
		<path class="st1" d="M192.5,111.7c0,0-20.2,3-27,5.3s-13.6,4-20.9,9.7c-7.4,5.7-11,12.6-11,12.6"/>
		<line class="st1" x1="141.7" y1="129.2" x2="151.2" y2="131.5"/>
		<line class="st1" x1="150.5" y1="122.6" x2="153.6" y2="115.8"/>
		<line class="st1" x1="159.4" y1="119.1" x2="170" y2="118.2"/>
	</g>
	<g>
		<path class="st1" d="M108.5,155.1c-20.5-5.2-18-14.2-33.2-19.8s-20.8-8.7-20.8-8.7s-9.9-2.1,12.5-0.7c22.4,1.5,26.8,1.4,36.6,9.2
			s13.7,8.1,13.6,14.2C117.2,155.4,108.5,155.1,108.5,155.1z"/>
		<path class="st1" d="M54.5,126.5c0,0,20.2,3,27,5.3s13.6,4,20.9,9.7c7.4,5.7,11,12.6,11,12.6"/>
		<line class="st1" x1="105.3" y1="144" x2="95.8" y2="146.4"/>
		<line class="st1" x1="96.5" y1="137.5" x2="93.4" y2="130.7"/>
		<line class="st1" x1="87.6" y1="133.9" x2="77.1" y2="133"/>
	</g>
</g>
</svg>
