<?xml version="1.0" encoding="utf-8"?>
<!-- Generator: Adobe Illustrator 22.1.0, SVG Export Plug-In . SVG Version: 6.00 Build 0)  -->
<svg version="1.1" id="Layer_1" xmlns="http://www.w3.org/2000/svg" xmlns:xlink="http://www.w3.org/1999/xlink" x="0px" y="0px"
	 width="200.5px" height="177px" viewBox="0 0 200.5 177" style="enable-background:new 0 0 200.5 177;" xml:space="preserve">
<style type="text/css">
	.st0{fill:none;stroke:#7B4D6D;stroke-width:0.75;stroke-miterlimit:10;}
	.st1{fill:#545272;stroke:#7B4D6D;stroke-width:0.75;stroke-miterlimit:10;}
</style>
<g>
	<path class="st0" d="M114.2,67.6c0,13.4-17.3,61.8-38.7,61.8S36.7,81,36.7,67.6S54,43.3,75.4,43.3S114.2,54.2,114.2,67.6z"/>
	<path class="st0" d="M74.6,36.7c0,4.1-8.5,7.4-18.9,7.4s-18.9-3.3-18.9-7.4H74.6z"/>
	<path class="st0" d="M113,36.7c0,4.1-8.5,7.4-18.9,7.4s-18.9-3.3-18.9-7.4H113z"/>
	<path class="st0" d="M111.4,16.2c1.6,3.8-4.9,10.1-14.5,14.2S78.1,34.7,76.5,31L111.4,16.2z"/>
	<path class="st0" d="M38.4,16.2c-1.6,3.8,4.9,10.1,14.5,14.2s18.7,4.3,20.3,0.6L38.4,16.2z"/>
	<path class="st0" d="M75.1,36.7c-1.9-5.7,0-16.8,0-16.8"/>
	<ellipse class="st1" cx="51.5" cy="65.4" rx="1.6" ry="4"/>
	<ellipse class="st1" cx="67.6" cy="65.4" rx="1.6" ry="4"/>
	
		<ellipse transform="matrix(0.999 -4.413285e-02 4.413285e-02 0.999 -5.6491 5.1141)" class="st1" cx="113" cy="130.5" rx="4" ry="1.6"/>
	<ellipse transform="matrix(0.9249 -0.3803 0.3803 0.9249 -35.874 54.6202)" class="st1" cx="120.3" cy="118.1" rx="1.6" ry="4"/>
	
		<ellipse transform="matrix(7.943453e-02 -0.9968 0.9968 7.943453e-02 9.8953 238.4535)" class="st1" cx="134.1" cy="113.9" rx="4" ry="1.6"/>
	<ellipse class="st1" cx="91.4" cy="78.3" rx="1.6" ry="4"/>
	<ellipse class="st1" cx="76.5" cy="85.2" rx="1.6" ry="4"/>
	<ellipse class="st1" cx="62.2" cy="95.4" rx="1.6" ry="4"/>
	<ellipse class="st1" cx="91.4" cy="101" rx="1.6" ry="4"/>
	<ellipse class="st1" cx="72.7" cy="115.2" rx="1.6" ry="4"/>
	<ellipse class="st1" cx="60.6" cy="78.3" rx="1.6" ry="4"/>
	<ellipse class="st1" cx="98.6" cy="65.4" rx="1.6" ry="4"/>
	<ellipse class="st0" cx="134.1" cy="133.4" rx="29.7" ry="28.2"/>
	<ellipse transform="matrix(0.4759 -0.8795 0.8795 0.4759 -25.7969 191.6167)" class="st1" cx="147.9" cy="117.5" rx="4" ry="1.6"/>
	<ellipse transform="matrix(0.1495 -0.9888 0.9888 0.1495 -1.3447 264.8784)" class="st1" cx="153.3" cy="133.2" rx="1.6" ry="4"/>
	<ellipse transform="matrix(0.5808 -0.8141 0.8141 0.5808 -56.958 183.721)" class="st1" cx="149.9" cy="147.2" rx="1.6" ry="4"/>
	<ellipse transform="matrix(0.8604 -0.5097 0.5097 0.8604 -57.8833 92.5286)" class="st1" cx="139.9" cy="151.9" rx="1.6" ry="4"/>
	<ellipse transform="matrix(0.6366 -0.7712 0.7712 0.6366 -71.0236 151.8746)" class="st1" cx="125.6" cy="151.3" rx="4" ry="1.6"/>
	<ellipse transform="matrix(0.9167 -0.3997 0.3997 0.9167 -46.7782 57.8855)" class="st1" cx="115.4" cy="141.1" rx="4" ry="1.6"/>
	<g>
		<path class="st0" d="M133.8,145.3c1-2.1,1.5-4.3,1.5-6.8c0-2.4-0.6-4.7-1.5-6.7c-1,2.1-1.5,4.3-1.5,6.8
			C132.2,141,132.8,143.3,133.8,145.3z"/>
		<path class="st0" d="M133.5,132.8c1-2.1,1.5-4.3,1.5-6.8c0-2.4-0.6-4.7-1.5-6.7c-1,2.1-1.5,4.3-1.5,6.8
			C132,128.4,132.6,130.7,133.5,132.8z"/>
		<path class="st0" d="M134.4,131.5c2,1.1,4.3,1.7,6.7,1.8s4.7-0.4,6.8-1.3c-2-1.1-4.3-1.7-6.7-1.8
			C138.7,130.2,136.4,130.6,134.4,131.5z"/>
		<path class="st0" d="M133.5,131.1c2.2-0.6,4.3-1.6,6.2-3.2c1.8-1.5,3.2-3.4,4.2-5.5c-2.2,0.6-4.3,1.6-6.2,3.2
			C135.9,127.2,134.5,129.1,133.5,131.1z"/>
		<path class="st0" d="M134.2,131.5c2.2,0.6,4.3,1.6,6.2,3.2c1.8,1.5,3.2,3.4,4.2,5.5c-2.2-0.6-4.3-1.6-6.2-3.2
			C136.5,135.5,135.1,133.6,134.2,131.5z"/>
		<path class="st0" d="M133.5,131.9c-2.2-0.6-4.3-1.6-6.2-3.2c-1.8-1.5-3.2-3.4-4.2-5.5c2.2,0.6,4.3,1.6,6.2,3.2
			C131.2,127.9,132.6,129.8,133.5,131.9z"/>
		<path class="st0" d="M133.3,131.7c-2.2,0.6-4.3,1.6-6.2,3.2c-1.8,1.5-3.2,3.4-4.2,5.5c2.2-0.6,4.3-1.6,6.2-3.2
			S132.4,133.8,133.3,131.7z"/>
		<path class="st0" d="M119.9,134.2c2.2,0.5,4.6,0.6,6.9,0c2.4-0.5,4.5-1.6,6.2-3c-2.2-0.5-4.6-0.6-6.9,0S121.7,132.8,119.9,134.2z"
			/>
	</g>
</g>
</svg>
