<?xml version="1.0" encoding="utf-8"?>
<!-- Generator: Adobe Illustrator 22.1.0, SVG Export Plug-In . SVG Version: 6.00 Build 0)  -->
<svg version="1.0" id="Layer_1" xmlns="http://www.w3.org/2000/svg" xmlns:xlink="http://www.w3.org/1999/xlink" x="0px" y="0px"
	 viewBox="0 0 70 71" style="enable-background:new 0 0 70 71;" xml:space="preserve">
<style type="text/css">
	.st0{fill:#E0D5C0;}
	.st1{fill:#D3C4B3;}
	.st2{fill:#219EB3;}
	.st3{fill:none;}
	.st4{font-family:'Zapfino';}
	.st5{font-size:5.1577px;}
	.st6{fill:none;stroke:#219EB3;stroke-width:0.1984;stroke-miterlimit:10;}
	.st7{font-family:'Georgia-Bold';}
	.st8{font-size:2.3805px;}
	.st9{fill:#604122;}
	.st10{font-family:'HelveticaNeue-Thin';}
	.st11{font-size:2.5788px;}
	.st12{font-family:'HelveticaNeue';}
</style>
<g id="Layer_1_1_">
</g>
<g>
	<g>
		<path class="st0" d="M31.4,31.7c0.4-0.2,0.7-0.2,1-0.4c0.6-0.4,1.3-0.8,1.8-1.4c1.9-1.8,3.4-3.9,4.9-6c0.3-0.5,0.7-0.6,1.2-0.7
			c0.3-0.1,0.5,0.1,0.5,0.4c0,0.3,0,0.6-0.1,0.9c-0.4,1.3-1.2,2.4-2.2,3.4c-1.7,1.6-3.6,3.1-5.6,4.3c-0.1,0-0.2,0.1-0.2,0.2
			c0,0.1-0.1,0.2,0,0.3c0,0.1,0.2,0.1,0.3,0.1c0.1,0,0.2-0.1,0.2-0.1c2.3-1.3,4.3-2.8,6.1-4.8c0.9-1,1.8-2.2,2.3-3.5
			c0.1-0.2,0.1-0.5,0.1-0.8c0-0.5-0.2-0.7-0.7-0.7c-0.3,0-0.7,0-1,0.1c0.1-0.1,0.1-0.2,0.2-0.3c1-1.5,1.9-3.1,2.5-4.8
			c0.2-0.5,0.2-1,0.3-1.5c0-0.4-0.2-0.7-0.6-0.7c-0.2,0-0.5-0.1-0.8,0c-1.3,0.2-2.4,0.8-3.5,1.5c-2.9,1.9-5.3,4.4-7.1,7.3
			c-1.2,1.8-2,3.8-2.2,6c0,0.1,0,0.2-0.1,0.2c-0.2,0.2-0.5,0.4-0.7,0.6c-0.1-0.6-0.3-1-0.7-0.9c-0.4,0.1-0.8,0.3-1.2,0.5
			c-0.3-0.9-1-1.3-1.8-1c0.2,0,0.3,0,0.5,0.1c0.6,0.1,0.9,0.5,1,1.1c0,0.3,0,0.5,0,0.8c0,0.3,0,0.7,0.1,1c0.2,0.5,0.4,0.6,0.9,0.4
			c0.4-0.2,0.8-0.5,1.2-0.7c0.2-0.2,0.4-0.1,0.6,0.1c0.2,0.3,0.5,0.5,0.8,0.7c0.1,0.1,0.3,0,0.5,0.1c0-0.2,0-0.4,0-0.5
			C29.3,32,29,31.5,29,30.9c-0.1-1.2,0.2-2.4,0.6-3.5c1-2.3,2.4-4.3,4-6.2c1.6-1.8,3.4-3.4,5.5-4.5c0.8-0.4,1.6-0.7,2.5-0.8
			c0.3,0,0.4,0.1,0.4,0.4c-0.1,0.4-0.1,0.8-0.2,1.2c-0.6,1.9-1.7,3.7-2.8,5.4C39,22.9,38.8,23,38.7,23c-2,0.8-3.8,2.1-5.2,3.7
			c-0.8,0.9-1.6,1.9-2,3C31.3,30.4,31.2,31,31.4,31.7z M32.8,33.2c0.2,0.3,0.4,0.5,0.6,0.6c0.9,0.7,1.8,0.8,2.9,0.8
			c1.1-0.1,2.1-0.2,3.2-0.3c0.2,0,0.3-0.1,0.3-0.3c-0.1-0.8-0.2-1.5-0.7-2.1c-0.3-0.4-0.7-0.6-1.3-0.6c-0.2,0.9-0.5,1.6-1.5,1.8
			c0.5-0.5,0.9-1.2,1-1.9c-0.6-0.2-0.5-0.1-0.8,0.3c-0.2,0.3-0.4,0.7-0.6,1c-0.3,0.3-0.6,0.6-1,0.6c0.4-0.6,0.9-1.2,1.3-1.8
			c0.1-0.1,0.1-0.3,0.1-0.4c0,0-0.1,0-0.1-0.1c-0.2,0.2-0.5,0.4-0.7,0.6C34.7,32.2,34,32.9,32.8,33.2z"/>
		<path class="st1" d="M31.4,31.7c-0.2-0.7-0.1-1.4,0.1-2c0.4-1.2,1.2-2.1,2-3c1.5-1.6,3.2-2.9,5.2-3.7c0.1,0,0.3-0.1,0.3-0.2
			c1.1-1.7,2.2-3.4,2.8-5.4c0.1-0.4,0.1-0.8,0.2-1.2c0-0.3-0.1-0.4-0.4-0.4c-0.9,0.1-1.7,0.4-2.5,0.8c-2.1,1.1-3.9,2.7-5.5,4.5
			c-1.6,1.9-3.1,3.8-4,6.2c-0.5,1.1-0.8,2.3-0.6,3.5c0.1,0.6,0.3,1.1,0.4,1.6c0,0.2,0,0.4,0,0.5c-0.2,0-0.4,0-0.5-0.1
			c-0.3-0.2-0.6-0.4-0.8-0.7c-0.2-0.2-0.3-0.3-0.6-0.1c-0.4,0.3-0.8,0.5-1.2,0.7c-0.5,0.3-0.7,0.2-0.9-0.4c-0.1-0.3-0.1-0.7-0.1-1
			c0-0.3,0-0.5,0-0.8c0-0.6-0.4-1-1-1.1c-0.1,0-0.3,0-0.5-0.1c0.8-0.3,1.5,0.2,1.8,1c0.4-0.2,0.8-0.4,1.2-0.5
			c0.4-0.1,0.6,0.3,0.7,0.9c0.2-0.2,0.5-0.4,0.7-0.6c0.1-0.1,0.1-0.2,0.1-0.2c0.2-2.2,1-4.2,2.2-6c1.9-2.9,4.2-5.4,7.1-7.3
			c1.1-0.7,2.2-1.3,3.5-1.5c0.2,0,0.5,0,0.8,0c0.4,0.1,0.6,0.4,0.6,0.7c0,0.5-0.1,1-0.3,1.5c-0.6,1.7-1.6,3.3-2.5,4.8
			c-0.1,0.1-0.1,0.2-0.2,0.3c0.4,0,0.7-0.1,1-0.1c0.5,0,0.7,0.3,0.7,0.7c0,0.3-0.1,0.5-0.1,0.8c-0.5,1.3-1.3,2.5-2.3,3.5
			c-1.8,1.9-3.8,3.5-6.1,4.8c-0.1,0-0.2,0.1-0.2,0.1c-0.1,0-0.2,0-0.3-0.1c0-0.1,0-0.2,0-0.3c0-0.1,0.1-0.1,0.2-0.2
			c2-1.2,3.9-2.6,5.6-4.3c1-0.9,1.8-2,2.2-3.4c0.1-0.3,0.1-0.6,0.1-0.9c0-0.3-0.1-0.4-0.5-0.4c-0.5,0.1-0.9,0.3-1.2,0.7
			c-1.4,2.1-3,4.2-4.9,6c-0.5,0.5-1.2,0.9-1.8,1.4C32.1,31.5,31.8,31.6,31.4,31.7z M38.6,23.8C38.5,23.8,38.5,23.8,38.6,23.8
			c-0.2,0-0.3,0-0.5,0.1c-1.4,0.6-2.6,1.6-3.7,2.6c-0.9,0.8-1.6,1.6-2.1,2.7c-0.3,0.6-0.6,1.3-0.6,2.1
			C34.7,29.4,36.6,26.6,38.6,23.8z"/>
		<path class="st1" d="M32.8,33.2c1.1-0.3,1.9-1,2.5-1.8c0.2-0.2,0.5-0.4,0.7-0.6c0,0,0.1,0,0.1,0.1c0,0.1,0,0.3-0.1,0.4
			c-0.4,0.6-0.9,1.2-1.3,1.8c0.4,0,0.8-0.3,1-0.6c0.2-0.3,0.4-0.6,0.6-1c0.2-0.5,0.2-0.5,0.8-0.3c-0.1,0.8-0.5,1.4-1,1.9
			c1-0.2,1.3-1,1.5-1.8c0.5,0,1,0.2,1.3,0.6c0.5,0.6,0.7,1.4,0.7,2.1c0,0.2,0,0.3-0.3,0.3c-1.1,0.1-2.1,0.2-3.2,0.3
			c-1.1,0.1-2-0.1-2.9-0.8C33.3,33.7,33.1,33.4,32.8,33.2z"/>
		<path class="st2" d="M38.6,23.8c-2,2.7-3.9,5.5-6.9,7.5c0-0.9,0.2-1.5,0.6-2.1c0.5-1,1.3-1.9,2.1-2.7c1.1-1,2.3-1.9,3.7-2.6
			C38.2,23.9,38.4,23.8,38.6,23.8C38.5,23.8,38.5,23.8,38.6,23.8z"/>
	</g>
	<rect x="40.8" y="19.3" class="st3" width="8.6" height="8.9"/>
	<text transform="matrix(1 0 0 1 40.848 28.0156)" class="st2 st4 st5">ee</text>
	<polyline class="st6" points="25.2,23.9 20.6,32.6 25.8,41 35.8,40.6 	"/>
	<rect x="25.4" y="34.6" class="st3" width="18.1" height="8"/>
	<text transform="matrix(1 0 0 0.97 25.3807 37.0093)"><tspan x="0" y="0" class="st1 st7 st8">Brown</tspan><tspan x="0" y="1.8" class="st9 st10 st11">  </tspan><tspan x="2.3" y="1.8" class="st2 st10 st11"> </tspan><tspan x="3.5" y="1.8" class="st2 st12 st11">sugar</tspan></text>
</g>
</svg>
