<?xml version="1.0" encoding="utf-8"?>
<!-- Generator: Adobe Illustrator 22.1.0, SVG Export Plug-In . SVG Version: 6.00 Build 0)  -->
<svg version="1.0" id="Layer_1" xmlns="http://www.w3.org/2000/svg" xmlns:xlink="http://www.w3.org/1999/xlink" x="0px" y="0px"
	 width="73px" height="67px" viewBox="0 0 73 67" style="enable-background:new 0 0 73 67;" xml:space="preserve">
<style type="text/css">
	.st0{fill:none;stroke:#7B4D6D;stroke-width:1.5;stroke-miterlimit:10;}
	.st1{fill:#7B4D6D;stroke:#7B4D6D;stroke-width:0.53;stroke-miterlimit:10;}
</style>
<g>
	<circle class="st0" cx="37" cy="34" r="27"/>
	<g>
		<path class="st1" d="M34.9,42.1c-1.2,4.6-1.8,9.4-6,12.9c0-2.6-0.3-4.8,0.1-6.9c0.7-3.9,1.7-7.8,2.5-11.8c0.2-0.9,0.1-1.9-0.1-2.8
			c-0.6-2.5-0.3-4.7,1.1-6.8c1.1-1.5,2.7-2,4.3-1.3c1.4,0.6,1.9,1.8,1.6,3.7c-0.3,1.6-0.8,3.1-1.3,4.7c-0.3,1-0.6,2-0.7,3
			c-0.3,2.7,1.3,4.2,4,3.9c1.7-0.2,3-1,4-2.4c2.9-4.2,3.6-8.7,1.8-13.4c-1.4-3.6-5.6-5.4-10-4.6c-5.8,1.1-9.9,6.2-9.2,11.6
			c0.1,1,0.8,1.9,1.1,2.9c0.2,1,0.4,2,0.4,3c0,0.8-0.6,0.9-1.3,0.7c-2.2-0.8-3.6-2.4-4-4.7c-1.1-5.4,0.4-10,4.7-13.6
			c5.3-4.4,14.4-4.7,19.9-0.6c2.7,2,4.3,4.7,4.6,8c0.5,5.1-0.5,9.7-4,13.7c-2.6,2.9-8.5,4.7-12.3,1.4C35.7,42.5,35.4,42.4,34.9,42.1
			z"/>
	</g>
</g>
</svg>
