<?xml version="1.0" encoding="utf-8"?>
<!-- Generator: Adobe Illustrator 22.1.0, SVG Export Plug-In . SVG Version: 6.00 Build 0)  -->
<svg version="1.0" id="Layer_1" xmlns="http://www.w3.org/2000/svg" xmlns:xlink="http://www.w3.org/1999/xlink" x="0px" y="0px"
	 viewBox="0 0 141.1 238.3" style="enable-background:new 0 0 141.1 238.3;" xml:space="preserve">
<style type="text/css">
	.st0{fill:none;stroke:#D4C5B4;stroke-width:0.4659;stroke-miterlimit:10;}
	.st1{fill:#D4C5B4;stroke:#D4C5B4;stroke-width:0.5357;stroke-miterlimit:10;}
	.st2{fill:none;stroke:#D4C5B4;stroke-width:0.5357;stroke-miterlimit:10;}
	.st3{fill:none;stroke:#D4C5B4;stroke-width:0.3796;stroke-miterlimit:10;}
	.st4{fill:none;stroke:#D4C5B4;stroke-width:0.4496;stroke-miterlimit:10;}
	.st5{fill:#D4C5B4;}
</style>
<g id="Layer_1_1_">
</g>
<g id="Layer_2_1_">
	<g>
		<g>
			<path class="st0" d="M84,112.3c1.2-3.6,7.6-33.5,4-34.8c-3.6-1.1-15.8,26.9-17.1,30.6c-1.2,3.6,0.7,7.5,4.4,8.7
				C78.9,117.9,82.7,116,84,112.3z"/>
			<path class="st0" d="M73,115.6c0,0,0.3-4.3,4-12.3s11-25.6,11-25.6"/>
			<path class="st0" d="M78.2,117.3c0,0,2.3-3.6,4-12.3s6.1-27.3,6.1-27.3"/>
		</g>
		<path class="st1" d="M96.7,50.9L96.7,50.9c-0.8-0.3-1.9,0.2-2.1,1.1l-7.6,23.6c-0.3,0.8,0.2,1.9,1.1,2.1l0,0
			c0.8,0.3,1.9-0.2,2.1-1.1l7.6-23.6C98.1,52.1,97.7,51.2,96.7,50.9z"/>
		<circle class="st2" cx="97.1" cy="49.3" r="1.6"/>
		<g>
			<path class="st0" d="M46.5,78.5c-2,1.7-6,0.3-8.8-3.2s-3.5-7.5-1.6-9.2l34.2-28.6c2-1.7,6-0.3,8.8,3.2c2.9,3.4,3.5,7.5,1.6,9.2
				L46.5,78.5z"/>
			<g>
				<path class="st0" d="M36.7,74.1c0,0-1.8,1.8-4,3.4s-6.6,4.2-6.6,4.2c-1.4,1.2-1.9,3-0.9,4.1c0.9,1.1,2.8,1,4.2-0.2"/>
				<path class="st0" d="M38.7,76.5c0,0-2,1.4-4,3.4c-2,2-5.3,5.8-5.3,5.8c-1.4,1.2-3.3,1.2-4.2,0.2c-0.9-1.1-0.5-2.9,0.9-4.1"/>
			</g>
			<g>
				<path class="st0" d="M78.2,39.6c0,0,2-1.4,4-3.4c2-2,5.3-5.8,5.3-5.8c1.4-1.2,3.3-1.2,4.2-0.2c0.9,1.1,0.5,2.9-0.9,4.1"/>
				<path class="st0" d="M80.1,41.9c0,0,1.8-1.8,4-3.4c2.2-1.6,6.6-4.2,6.6-4.2c1.4-1.2,1.9-3,0.9-4.1s-2.8-1-4.2,0.2"/>
			</g>
		</g>
		<ellipse class="st3" cx="75.8" cy="91.4" rx="28.6" ry="6.6"/>
		<path class="st4" d="M104.8,91.6c0,19.1-13,30.2-29.1,30.2s-29.1-11.1-29.1-30.2"/>
		<g>
			<path class="st5" d="M46.8,157.3c0.8,2.3,1.6,4.7,2.3,7c0.7,2.3,1.4,4.7,2.1,7.1l-0.1-0.1c4.7,0,9.3-0.3,14-0.4l-0.2,0.2
				c0.7-2.3,1.5-4.7,2.2-7c0.7-2.3,1.6-4.7,2.4-7l0,0c-0.7,2.4-1.4,4.8-2,7.1c-0.7,2.3-1.4,4.8-2.1,7.1l-0.1,0.2h-0.2
				c-4.7,0.1-9.3-0.1-14,0.1h-0.1v-0.1c-0.8-2.3-1.6-4.7-2.3-7C48.1,162.1,47.3,159.8,46.8,157.3L46.8,157.3z"/>
		</g>
		<g>
			<path class="st5" d="M53.9,157.3l1.5,7c0.3,1.2,0.6,2.3,0.7,3.5c0.2,1.2,0.4,2.3,0.5,3.5l0,0c-0.4-1.1-0.7-2.3-0.8-3.4
				c-0.3-1.2-0.5-2.3-0.7-3.5L53.9,157.3L53.9,157.3z"/>
		</g>
		<g>
			<path class="st5" d="M62.4,157.3l-1.2,7.1c-0.2,1.2-0.4,2.3-0.7,3.5c-0.3,1.2-0.6,2.3-0.8,3.4l0,0c0.1-1.2,0.3-2.4,0.5-3.5
				c0.2-1.2,0.5-2.3,0.7-3.5L62.4,157.3L62.4,157.3z"/>
		</g>
		<path class="st0" d="M40.2,157.6c21.7,0.8,37.2,1.3,36.5-4.6c-0.7-6-28,0-30.8-3.3c-2.9-3.3,27.5,1.1,25.8-3.8
			c-1.6-4.8-21.7,1.1-18.9-2.7c2.7-3.8,9.8-2.5,11.4-4.2"/>
		<g>
			<g>
				<g>
					<path class="st0" d="M95.2,164.4c12.1,0,22,1,22.5,2.3v19.9"/>
					<path class="st0" d="M95.2,164.4c-12.1,0-22,1-22.5,2.3v19.8"/>
				</g>
				<line class="st0" x1="69.6" y1="186.3" x2="121.5" y2="186.9"/>
				<path class="st0" d="M75.9,186.3c0,1.8-1.4,3.2-3.2,3.2s-3.2-1.4-3.2-3.2"/>
				<path class="st0" d="M82.5,186.3c0,1.8-1.4,3.2-3.2,3.2c-1.8,0-3.2-1.4-3.2-3.2"/>
				<path class="st0" d="M89,186.6c0,1.8-1.4,3.2-3.2,3.2c-1.8,0-3.2-1.4-3.2-3.2"/>
				<path class="st0" d="M95.6,186.6c0,1.8-1.4,3.2-3.2,3.2c-1.8,0-3.2-1.4-3.2-3.2"/>
				<path class="st0" d="M101.9,186.6c0,1.8-1.4,3.2-3.2,3.2c-1.8,0-3.2-1.4-3.2-3.2"/>
				<path class="st0" d="M108.4,186.6c0,1.8-1.4,3.2-3.2,3.2c-1.8,0-3.2-1.4-3.2-3.2"/>
				<path class="st0" d="M114.9,187c0,1.8-1.4,3.2-3.2,3.2s-3.2-1.4-3.2-3.2"/>
				<path class="st0" d="M121.4,187.1c0,1.8-1.4,3.2-3.2,3.2s-3.2-1.4-3.2-3.2"/>
			</g>
			<path class="st0" d="M92.5,189.5c0.4,5.8,2.6,12.2,0,16.3c-2.6,4.1-4.3,5.8-4.3,5.8H103c0,0-1.8-1.8-4.3-5.8
				c-2.6-4-0.4-10.4,0-16.3"/>
		</g>
	</g>
</g>
</svg>
