<?xml version="1.0" encoding="utf-8"?>
<!-- Generator: Adobe Illustrator 22.1.0, SVG Export Plug-In . SVG Version: 6.00 Build 0)  -->
<svg version="1.0" id="Layer_1" xmlns="http://www.w3.org/2000/svg" xmlns:xlink="http://www.w3.org/1999/xlink" x="0px" y="0px"
	 viewBox="0 0 141 238" style="enable-background:new 0 0 141 238;" xml:space="preserve">
<style type="text/css">
	.st0{fill:none;stroke:#D3C4B3;stroke-width:0.5;stroke-miterlimit:10;}
	.st1{fill:#D3C4B3;}
</style>
<g id="Layer_1_1_">
</g>
<g>
	<path class="st0" d="M23.9,96.6c0,0,3.5,4,4.5,10.1c1,6.1,0,12.7,0,12.7"/>
	<path class="st0" d="M38.7,93c0,0,3.9,8.2,3.9,15c0,6.8,0,6.8,0,6.8"/>
	<path class="st0" d="M46.5,49.1c0,0,3.1,3.8,2.6,11"/>
	<g>
		<g>
			<path class="st1" d="M49.2,78.5c1,0,1-1.5,0-1.5C48.2,77,48.2,78.5,49.2,78.5L49.2,78.5z"/>
		</g>
	</g>
	<g>
		<g>
			<path class="st1" d="M39.4,81.4c1,0,1-1.5,0-1.5C38.4,79.9,38.4,81.4,39.4,81.4L39.4,81.4z"/>
		</g>
	</g>
	<g>
		<g>
			<path class="st1" d="M37.2,73c1,0,1-1.5,0-1.5C36.3,71.5,36.3,73,37.2,73L37.2,73z"/>
		</g>
	</g>
	<g>
		<g>
			<path class="st1" d="M46.4,70.6c0.3,0,0.3-0.5,0-0.5C46.1,70.1,46.1,70.6,46.4,70.6L46.4,70.6z"/>
		</g>
	</g>
	<g>
		<g>
			<path class="st1" d="M40.6,88.4c0.3,0,0.3-0.5,0-0.5C40.3,87.9,40.3,88.4,40.6,88.4L40.6,88.4z"/>
		</g>
	</g>
	<g>
		<g>
			<path class="st1" d="M47.9,86.9c0.3,0,0.3-0.5,0-0.5C47.6,86.4,47.6,86.9,47.9,86.9L47.9,86.9z"/>
		</g>
	</g>
	<g>
		<path class="st0" d="M22.9,115.8c-3.5,6.1-30.9,8.6,0,6.6s68.3-7.1,73.9-6.6c5.6,0.5,4.6,3.4,0,7.3"/>
		<path class="st0" d="M57,119.4l-7.8,17.5c0,0,3.4,7.4,7.8,14.9"/>
		<path class="st0" d="M32,156c9.6-2,16.6-4.6,25-4.6s15,3,22.6,4.6"/>
		<path class="st0" d="M27.9,95.1c0,0-17.7,3.5,21.3-5.1s39-8.6,39-8.6s-4,12.1-3.5,20.7s3.5,14.1,3.5,14.1"/>
		<path class="st0" d="M71.8,84.8c0,0-3.4,8.7-2.4,14c1,5.3,2.4,13.4,2.4,13.4"/>
		<path class="st0" d="M53.2,90c0,0,3.7,14.7,3.9,19.7"/>
		<g>
			<path class="st0" d="M75,64.9c0,0,14-0.7-16.9,0.2c-30.9,0.8-30.9,0.8-30.9,0.8s5.3,8.4,6.5,14.9c1.2,6.6,0,11.3,0,11.3"/>
			<path class="st0" d="M78.3,65.3c0,0-1.9,3.7-1.5,8.4c0.4,4.7,2.4,9.6,2.4,9.6"/>
		</g>
		<path class="st0" d="M68.5,63.7c-1.5-5.1,1.3-26.3,1.3-26.3S56.3,49,36.7,51c0,0,2.1,6.7,0,12.6"/>
		<circle class="st0" cx="51.2" cy="42.1" r="5.1"/>
		<path class="st0" d="M59.3,44.1c0,0-1.1,11.2,0,16.1"/>
		<g>
			<g>
				<path class="st1" d="M57.1,83.7c1,0,1-1.5,0-1.5C56.2,82.2,56.2,83.7,57.1,83.7L57.1,83.7z"/>
			</g>
		</g>
		<g>
			<g>
				<path class="st1" d="M71.8,79.6c1,0,1-1.5,0-1.5C70.8,78.1,70.8,79.6,71.8,79.6L71.8,79.6z"/>
			</g>
		</g>
		<g>
			<g>
				<path class="st1" d="M67.1,71.6c1,0,1-1.5,0-1.5C66.1,70.1,66.1,71.6,67.1,71.6L67.1,71.6z"/>
			</g>
		</g>
		<path class="st0" d="M89.2,212"/>
		<ellipse class="st0" cx="105.9" cy="135.6" rx="16.4" ry="2.7"/>
		<path class="st0" d="M122,135.6c0,19-7.3,51-16.4,51s-16.4-32.1-16.4-51"/>
		<line class="st0" x1="106.2" y1="186.1" x2="106.2" y2="207.3"/>
		<path class="st0" d="M94.1,210.6c12.1-4.6,18.6-3.5,23.5,0"/>
		<g>
			<circle class="st0" cx="104.3" cy="177.3" r="5.6"/>
			<path class="st0" d="M105.6,171.9c0,0-3-3.3,1.8-7.2s7.5-7.1,7.5-7.1"/>
		</g>
		<g>
			<path class="st0" d="M94.3,154.3c2.1,2.6,5.4,4.3,9,4.3c6.4,0,11.5-5.2,11.5-11.5c0-2.3-0.7-4.4-1.8-6.2
				C107.8,144.7,100.6,149.9,94.3,154.3z"/>
			<polyline class="st0" points="103.3,158.6 103.8,147.6 114.8,149.8 			"/>
			<line class="st0" x1="109.4" y1="156.9" x2="103.8" y2="147.6"/>
		</g>
		<g>
			<g>
				<path class="st1" d="M54.7,69.9c0.3,0,0.3-0.5,0-0.5C54.4,69.4,54.4,69.9,54.7,69.9L54.7,69.9z"/>
			</g>
		</g>
		<g>
			<g>
				<path class="st1" d="M59.8,77.9c0.3,0,0.3-0.5,0-0.5C59.5,77.4,59.5,77.9,59.8,77.9L59.8,77.9z"/>
			</g>
		</g>
		<g>
			<g>
				<path class="st1" d="M65.2,81.7c0.3,0,0.3-0.5,0-0.5C64.8,81.2,64.8,81.7,65.2,81.7L65.2,81.7z"/>
			</g>
		</g>
	</g>
</g>
</svg>
